<svg xmlns="http://www.w3.org/2000/svg" xmlns:svg="http://www.w3.org/2000/svg" id="svg2" width="1000" height="500" version="1.1"><defs id="defs4"><marker id="Arrow2Lstart" orient="auto" refX="0" refY="0" style="overflow:visible"><path id="path3611" d="M 8.7185878,4.0337352 -2.2072895,0.01601326 8.7185884,-4.0017078 c -1.7454984,2.3720609 -1.7354408,5.6174519 -6e-7,8.035443 z" transform="matrix(1.1,0,0,1.1,1.1,0)" style="font-size:12px;fill-rule:evenodd;stroke-width:.625;stroke-linejoin:round"/></marker><marker id="Arrow2Lend" orient="auto" refX="0" refY="0" style="overflow:visible"><path id="path3614" d="M 8.7185878,4.0337352 -2.2072895,0.01601326 8.7185884,-4.0017078 c -1.7454984,2.3720609 -1.7354408,5.6174519 -6e-7,8.035443 z" transform="matrix(-1.1,0,0,-1.1,-1.1,0)" style="font-size:12px;fill-rule:evenodd;stroke-width:.625;stroke-linejoin:round"/></marker><marker id="Arrow1Lend" orient="auto" refX="0" refY="0" style="overflow:visible"><path id="path3596" d="M 0,0 5,-5 -12.5,0 5,5 0,0 z" transform="matrix(-0.8,0,0,-0.8,-10,0)" style="fill-rule:evenodd;stroke:#000;stroke-width:1pt;marker-start:none"/></marker><marker id="Arrow1Lstart" orient="auto" refX="0" refY="0" style="overflow:visible"><path id="path3593" d="M 0,0 5,-5 -12.5,0 5,5 0,0 z" transform="matrix(0.8,0,0,0.8,10,0)" style="fill-rule:evenodd;stroke:#000;stroke-width:1pt;marker-start:none"/></marker><marker id="Arrow2Lstart-3" orient="auto" refX="0" refY="0" style="overflow:visible"><path id="path3611-2" d="M 8.7185878,4.0337352 -2.2072895,0.01601326 8.7185884,-4.0017078 c -1.7454984,2.3720609 -1.7354408,5.6174519 -6e-7,8.035443 z" transform="matrix(1.1,0,0,1.1,1.1,0)" style="font-size:12px;fill-rule:evenodd;stroke-width:.625;stroke-linejoin:round"/></marker><marker id="Arrow2Lend-4" orient="auto" refX="0" refY="0" style="overflow:visible"><path id="path3614-3" d="M 8.7185878,4.0337352 -2.2072895,0.01601326 8.7185884,-4.0017078 c -1.7454984,2.3720609 -1.7354408,5.6174519 -6e-7,8.035443 z" transform="matrix(-1.1,0,0,-1.1,-1.1,0)" style="font-size:12px;fill-rule:evenodd;stroke-width:.625;stroke-linejoin:round"/></marker></defs><g id="layer1" transform="translate(0,-552.36218)"><path id="path4886" d="m 24.376417,241.4966 c 425.736963,0 425.736963,0 425.736963,0" transform="translate(0,552.36218)" style="fill:none;stroke:#000;stroke-width:2;stroke-linecap:butt;stroke-linejoin:miter;stroke-miterlimit:4;stroke-opacity:1;stroke-dasharray:none"/><path id="path2816" d="m 25.510204,15.873016 0,451.814054 454.081636,0" transform="translate(0,552.36218)" style="fill:none;stroke:#000;stroke-width:3;stroke-linecap:butt;stroke-linejoin:miter;stroke-miterlimit:4;stroke-opacity:1;stroke-dasharray:none;marker-start:url(#Arrow2Lstart);marker-mid:none;marker-end:url(#Arrow2Lend)"/><path id="path4795" d="m 106.57596,112.52834 a 6.5192742,6.5192742 0 1 1 -13.038548,0 6.5192742,6.5192742 0 1 1 13.038548,0 z" transform="translate(-12.471655,797.82703)" style="fill:#000;fill-opacity:1;stroke:none"/><path id="path4795-2" d="m 106.57596,112.52834 a 6.5192742,6.5192742 0 1 1 -13.038548,0 6.5192742,6.5192742 0 1 1 13.038548,0 z" transform="translate(34.863949,749.35765)" style="fill:#000;fill-opacity:1;stroke:none"/><path id="path4795-0" d="m 106.57596,112.52834 a 6.5192742,6.5192742 0 1 1 -13.038548,0 6.5192742,6.5192742 0 1 1 13.038548,0 z" transform="translate(221.93878,659.22159)" style="fill:#000;fill-opacity:1;stroke:none"/><path id="path4795-29" d="m 106.57596,112.52834 a 6.5192742,6.5192742 0 1 1 -13.038548,0 6.5192742,6.5192742 0 1 1 13.038548,0 z" transform="translate(278.06123,566.25107)" style="fill:#000;fill-opacity:1;stroke:none"/><text id="text4837" x="36.281" y="572.203" xml:space="preserve" style="font-size:40px;font-style:normal;font-weight:400;line-height:125%;fill:#000;fill-opacity:1;stroke:none;font-family:Bitstream Vera Sans"><tspan id="tspan4839" x="36.281" y="572.203" style="font-size:30px;font-style:italic;font-variant:normal;font-weight:400;font-stretch:normal;text-align:start;line-height:125%;writing-mode:lr-tb;text-anchor:start;font-family:Serif;-inkscape-font-specification:Serif Italic">y</tspan></text><text id="text4837-0" x="477.189" y="1002.96" xml:space="preserve" style="font-size:40px;font-style:normal;font-weight:400;line-height:125%;fill:#000;fill-opacity:1;stroke:none;font-family:Bitstream Vera Sans"><tspan id="tspan4839-9" x="477.189" y="1002.96" style="font-size:30px;font-style:italic;font-variant:normal;font-weight:400;font-stretch:normal;text-align:start;line-height:125%;writing-mode:lr-tb;text-anchor:start;font-family:Serif;-inkscape-font-specification:Serif Italic">x</tspan></text><g id="g4894"><text id="text4837-9" x="55.988" y="771.101" xml:space="preserve" style="font-size:40px;font-style:normal;font-weight:400;line-height:125%;fill:#000;fill-opacity:1;stroke:none;font-family:Bitstream Vera Sans"><tspan id="tspan4839-93" x="55.988" y="771.101" style="font-size:30px;font-style:italic;font-variant:normal;font-weight:400;font-stretch:normal;text-align:start;line-height:125%;writing-mode:lr-tb;text-anchor:start;fill:#000;fill-opacity:1;font-family:Serif;-inkscape-font-specification:Serif Italic">y</tspan></text><path id="path4879" d="m 58.095576,751.34177 14.761228,0" style="fill:none;stroke:#000;stroke-width:.67588544px;stroke-linecap:butt;stroke-linejoin:miter;stroke-opacity:1"/></g><rect id="rect4899" width="68.027" height="68.027" x="134.354" y="793.859" rx="0" ry="0" style="fill:red;fill-opacity:.49803922;stroke:none"/><rect id="rect4899-6" width="20.975" height="20.975" x="301.02" y="771.75" rx="0" ry="0" style="fill:red;fill-opacity:.49803922;stroke:none"/><rect id="rect4899-60" width="115.079" height="115.079" x="263.039" y="677.646" rx="0" ry="0" style="fill:red;fill-opacity:.49803922;stroke:none"/><rect id="rect4899-0" width="116.213" height="116.213" x="87.302" y="794.426" rx="0" ry="0" style="fill:red;fill-opacity:.49803922;stroke:none"/><path id="path4886-7" d="M 557.78029,924.253 C 905.36035,678.40738 905.36035,678.40738 905.36035,678.40738" style="fill:none;stroke:#000;stroke-width:2;stroke-linecap:butt;stroke-linejoin:miter;stroke-miterlimit:4;stroke-opacity:1;stroke-dasharray:none"/><path id="path2816-1" d="m 525.31133,568.17752 0,451.81398 454.08163,0" style="fill:none;stroke:#000;stroke-width:3;stroke-linecap:butt;stroke-linejoin:miter;stroke-miterlimit:4;stroke-opacity:1;stroke-dasharray:none;marker-start:url(#Arrow2Lstart);marker-mid:none;marker-end:url(#Arrow2Lend)"/><path id="path4795-22" d="m 106.57596,112.52834 a 6.5192742,6.5192742 0 1 1 -13.038548,0 6.5192742,6.5192742 0 1 1 13.038548,0 z" transform="translate(487.32947,797.76935)" style="fill:#000;fill-opacity:1;stroke:none"/><path id="path4795-2-0" d="m 106.57596,112.52834 a 6.5192742,6.5192742 0 1 1 -13.038548,0 6.5192742,6.5192742 0 1 1 13.038548,0 z" transform="translate(534.66507,749.29997)" style="fill:#000;fill-opacity:1;stroke:none"/><path id="path4795-0-2" d="m 106.57596,112.52834 a 6.5192742,6.5192742 0 1 1 -13.038548,0 6.5192742,6.5192742 0 1 1 13.038548,0 z" transform="translate(721.7399,659.16391)" style="fill:#000;fill-opacity:1;stroke:none"/><path id="path4795-29-1" d="m 106.57596,112.52834 a 6.5192742,6.5192742 0 1 1 -13.038548,0 6.5192742,6.5192742 0 1 1 13.038548,0 z" transform="translate(777.86235,566.19339)" style="fill:#000;fill-opacity:1;stroke:none"/><text id="text4837-7" x="536.082" y="572.146" xml:space="preserve" style="font-size:40px;font-style:normal;font-weight:400;line-height:125%;fill:#000;fill-opacity:1;stroke:none;font-family:Bitstream Vera Sans"><tspan id="tspan4839-5" x="536.082" y="572.146" style="font-size:30px;font-style:italic;font-variant:normal;font-weight:400;font-stretch:normal;text-align:start;line-height:125%;writing-mode:lr-tb;text-anchor:start;font-family:Serif;-inkscape-font-specification:Serif Italic">y</tspan></text><text id="text4837-0-1" x="976.991" y="1002.903" xml:space="preserve" style="font-size:40px;font-style:normal;font-weight:400;line-height:125%;fill:#000;fill-opacity:1;stroke:none;font-family:Bitstream Vera Sans"><tspan id="tspan4839-9-7" x="976.991" y="1002.903" style="font-size:30px;font-style:italic;font-variant:normal;font-weight:400;font-stretch:normal;text-align:start;line-height:125%;writing-mode:lr-tb;text-anchor:start;font-family:Serif;-inkscape-font-specification:Serif Italic">x</tspan></text><rect id="rect4899-60-2" width="19.255" height="19.255" x="858.271" y="678.601" rx="0" ry="0" style="fill:#00f;fill-opacity:1;stroke:none"/><rect id="rect4899-60-2-9" width="32.944" height="32.944" x="820.626" y="737.465" rx="0" ry="0" style="fill:#00f;fill-opacity:1;stroke:none"/><rect id="rect4899-60-2-4" width="6.25" height="6.25" x="633.768" y="860.668" rx="0" ry="0" style="fill:#00f;fill-opacity:1;stroke:none"/><rect id="rect4899-60-2-4-4" width="6.934" height="6.934" x="584.829" y="903.447" rx="0" ry="0" style="fill:#00f;fill-opacity:1;stroke:none"/><text id="text4837-7-8" x="700.348" y="793.297" xml:space="preserve" style="font-size:40px;font-style:normal;font-weight:400;line-height:125%;fill:#000;fill-opacity:1;stroke:none;font-family:Bitstream Vera Sans"><tspan id="tspan4839-5-5" x="700.348" y="793.297" style="font-size:30px;font-style:italic;font-variant:normal;font-weight:400;font-stretch:normal;text-align:start;line-height:125%;writing-mode:lr-tb;text-anchor:start;font-family:Serif;-inkscape-font-specification:Serif Italic">f</tspan></text></g></svg>